<svg width="64" height="64" viewBox="0 0 64 64" fill="none" xmlns="http://www.w3.org/2000/svg">
<g filter="url(#filter0_d)">
<circle cx="32" cy="28" r="24" transform="rotate(-180 32 28)" fill="white"/>
<g clip-path="url(#clip0)">
<path d="M28.7225 21.5706C28.9883 21.3048 29.4069 21.3048 29.6727 21.5706C29.9296 21.8275 29.9296 22.255 29.6727 22.5112L24.8545 27.3294L40.7538 27.3294C41.1245 27.3294 41.4286 27.624 41.4286 27.9946C41.4286 28.3653 41.1245 28.6694 40.7538 28.6694L24.8545 28.6694L29.6727 33.4786C29.9296 33.7445 29.9296 34.1726 29.6727 34.4288C29.4069 34.6947 28.9883 34.6947 28.7225 34.4288L22.7637 28.47C22.5068 28.2132 22.5068 27.7857 22.7637 27.5294L28.7225 21.5706Z" fill="#155FEF"/>
</g>
</g>
<defs>
<filter id="filter0_d" x="0" y="0" width="64" height="64" filterUnits="userSpaceOnUse" color-interpolation-filters="sRGB">
<feFlood flood-opacity="0" result="BackgroundImageFix"/>
<feColorMatrix in="SourceAlpha" type="matrix" values="0 0 0 0 0 0 0 0 0 0 0 0 0 0 0 0 0 0 127 0"/>
<feOffset dy="4"/>
<feGaussianBlur stdDeviation="4"/>
<feColorMatrix type="matrix" values="0 0 0 0 0 0 0 0 0 0 0 0 0 0 0 0 0 0 0.16 0"/>
<feBlend mode="normal" in2="BackgroundImageFix" result="effect1_dropShadow"/>
<feBlend mode="normal" in="SourceGraphic" in2="effect1_dropShadow" result="shape"/>
</filter>
<clipPath id="clip0">
<rect width="18.8571" height="18.8571" fill="white" transform="translate(22.5715 18.5714)"/>
</clipPath>
</defs>
</svg>
