<svg width="14" height="16" viewBox="0 0 14 16" fill="none" xmlns="http://www.w3.org/2000/svg">
<path fill-rule="evenodd" clip-rule="evenodd" d="M13.1658 12.2344C13.3802 12.4488 13.4546 12.7656 13.3586 13.0528L12.5586 15.4528C12.4498 15.78 12.1442 16 11.8002 16H2.20016C1.85536 16 1.54976 15.78 1.44096 15.4528L0.640962 13.0528C0.544962 12.7656 0.620162 12.4488 0.834562 12.2344C0.941762 12.1264 3.50816 9.6 7.00016 9.6C10.4914 9.6 13.0578 12.1264 13.1658 12.2344ZM11.2234 14.4L11.673 13.0504C10.937 12.4488 9.14896 11.2 7.00016 11.2C4.83776 11.2 3.05856 12.4464 2.32576 13.048L2.77616 14.4H11.2234ZM6.99993 1.6C5.67673 1.6 4.59993 2.6768 4.59993 4C4.59993 5.3232 5.67673 6.4 6.99993 6.4C8.32313 6.4 9.39993 5.3232 9.39993 4C9.39993 2.6768 8.32313 1.6 6.99993 1.6ZM6.99992 8C4.79432 8 2.99992 6.2056 2.99992 4C2.99992 1.7944 4.79432 0 6.99992 0C9.20552 0 10.9999 1.7944 10.9999 4C10.9999 6.2056 9.20552 8 6.99992 8Z" fill="white"/>
</svg>
