<svg width="155" height="46" viewBox="0 0 155 46" fill="none" xmlns="http://www.w3.org/2000/svg">
<path fill-rule="evenodd" clip-rule="evenodd" d="M45.7137 33.4014C45.5599 33.8299 45.6237 34.2185 45.2357 35.202C44.3808 37.3691 42.8326 38.9931 40.7815 39.7053C38.5117 40.4934 36.0024 39.6385 33.6824 37.4767C31.4692 35.4143 28.9942 34.5934 26.5597 35.1884C23.758 35.8733 21.3393 38.5093 19.4448 40.7276C20.8633 39.7374 21.9969 39.3853 23.5865 39.2781C24.0703 39.2456 25.193 39.4761 25.6814 39.6241C29.7809 40.8657 30.2699 45.5122 36.1304 45.9728C39.1752 46.2122 42.4815 44.8557 44.4025 42.0664C45.6946 40.1903 46.3686 37.8793 46.1585 35.5715C46.1128 35.0696 45.9445 33.8432 45.7137 33.4014Z" fill="#2363B0"/>
<path fill-rule="evenodd" clip-rule="evenodd" d="M35.5477 30.4919C34.8836 31.5129 34.7008 32.5493 34.829 33.4748C34.9708 34.4985 35.4837 35.6276 36.5504 36.3912C38.2456 37.6048 40.8562 37.4042 42.2311 35.3533C43.4204 33.5793 43.2626 30.9444 41.2509 29.4792C39.5815 28.2634 36.9106 28.3966 35.5477 30.4919Z" fill="#2363B0"/>
<path fill-rule="evenodd" clip-rule="evenodd" d="M0.482825 12.5984C0.636499 12.1699 0.572679 11.7813 0.960676 10.7978C1.81558 8.63077 3.36383 7.00683 5.41497 6.2946C7.68477 5.50638 10.194 6.36136 12.514 8.52311C14.7272 10.5856 17.2023 11.4065 19.6368 10.8114C22.4384 10.1265 24.8571 7.49054 26.7517 5.27231C25.3332 6.26242 24.1995 6.61451 22.6099 6.72166C22.1262 6.75427 21.0034 6.5237 20.515 6.37582C16.4155 5.13417 15.9265 0.487678 10.066 0.0269821C7.02126 -0.212309 3.71495 1.1441 1.79394 3.93335C0.501808 5.80951 -0.172151 8.12061 0.0378867 10.4284C0.0836407 10.9302 0.2519 12.1566 0.482825 12.5984Z" fill="#2363B0"/>
<path fill-rule="evenodd" clip-rule="evenodd" d="M10.6488 15.5081C11.3129 14.4871 11.4956 13.4507 11.3674 12.5252C11.2257 11.5014 10.7127 10.3723 9.64606 9.60881C7.95085 8.39523 5.34022 8.59576 3.96536 10.6466C2.77609 12.4207 2.93383 15.0555 4.94559 16.5207C6.61495 17.7365 9.28584 17.6033 10.6488 15.5081Z" fill="#2363B0"/>
<path fill-rule="evenodd" clip-rule="evenodd" d="M34.0798 0.498445C34.4949 0.657203 34.8712 0.591302 35.8238 0.991833C37.9225 1.87454 39.4954 3.47316 40.1852 5.59101C40.9485 7.93463 40.1205 10.5256 38.0268 12.9209C36.0294 15.2062 35.2343 17.7617 35.8106 20.2753C36.4739 23.1682 39.0269 25.6656 41.1752 27.6217C40.2163 26.1571 39.8753 24.9865 39.7715 23.3453C39.7399 22.8458 39.9632 21.6864 40.1064 21.1823C41.309 16.9493 45.8092 16.4444 46.2553 10.3934C46.487 7.24953 45.1734 3.83569 42.472 1.8522C40.6549 0.518127 38.4167 -0.177749 36.1816 0.0391192C35.6956 0.0862757 34.5078 0.260095 34.0798 0.498445Z" fill="#48C0E8"/>
<path fill-rule="evenodd" clip-rule="evenodd" d="M31.2621 10.995C32.2509 11.6807 33.2546 11.8693 34.151 11.737C35.1425 11.5906 36.236 11.061 36.9755 9.95967C38.1508 8.20932 37.9567 5.5137 35.9704 4.09421C34.2522 2.86625 31.7003 3.02912 30.2813 5.10623C29.1038 6.82989 29.2327 9.58772 31.2621 10.995Z" fill="#48C0E8"/>
<path fill-rule="evenodd" clip-rule="evenodd" d="M13.2573 45.5014C12.8423 45.3427 12.4659 45.4086 11.5133 45.008C9.41451 44.1253 7.84172 42.5267 7.15193 40.4088C6.38853 38.0652 7.21658 35.4743 9.31024 33.0789C11.3078 30.7937 12.1028 28.2382 11.5265 25.7245C10.8631 22.8316 8.3102 20.3343 6.16183 18.3782C7.12076 19.8428 7.46176 21.0134 7.56562 22.6546C7.59712 23.1541 7.37382 24.3134 7.23059 24.8176C6.02806 29.0505 1.52791 29.5554 1.08181 35.6065C0.849975 38.7503 2.16375 42.1641 4.86506 44.1476C6.6822 45.4817 8.92042 46.1777 11.1555 45.9608C11.6415 45.9136 12.8293 45.7398 13.2573 45.5014Z" fill="#48C0E8"/>
<path fill-rule="evenodd" clip-rule="evenodd" d="M16.0757 35.0047C15.0869 34.319 14.0832 34.1303 13.1869 34.2627C12.1953 34.409 11.1018 34.9386 10.3623 36.04C9.18695 37.7903 9.38115 40.4859 11.3674 41.9054C13.0856 43.1334 15.6375 42.9705 17.0565 40.8933C18.234 39.1697 18.105 36.4118 16.0757 35.0047Z" fill="#48C0E8"/>
<path d="M60.9822 13.6389H62.691V4.73315H61.3727L58.2156 9.28688L55.0747 4.73315H53.7566V13.6389H55.4491V8.12739L58.2156 12.2442L60.9822 8.12739V13.6389ZM65.6847 13.6389H72.9429V11.9418H67.3935V9.75733H70.567V8.06021H67.3935V6.43027H72.6174V4.73315H65.6847V13.6389ZM82.1695 13.6389H83.8783V4.73315H82.56L79.4029 9.28688L76.2619 4.73315H74.9438V13.6389H76.6363V8.12739L79.4029 12.2442L82.1695 8.12739V13.6389ZM86.872 13.6389H93.7559V11.9418H88.5972V4.73315H86.872V13.6389ZM95.4965 13.6389H102.755V11.9418H97.2053V9.75733H100.379V8.06021H97.2053V6.43027H102.429V4.73315H95.4965V13.6389ZM111.07 13.6389H113.153L109.263 8.06021L112.925 4.73315H110.663L106.513 8.41299V4.73315H104.804V13.6389H106.513V10.5302L107.994 9.23647L111.07 13.6389ZM114.633 13.6389H121.891V11.9418H116.342V9.75733H119.516V8.06021H116.342V6.43027H121.566V4.73315H114.633V13.6389ZM127.879 6.43027H131.2V4.73315H122.851V6.43027H126.171V13.6389H127.879V6.43027ZM136.764 6.43027H140.085V4.73315H131.736V6.43027H135.056V13.6389H136.764V6.43027ZM141.548 13.6724H143.273V4.73315H141.548V13.6724ZM152.598 13.6389H154.681L150.791 8.06021L154.453 4.73315H152.191L148.041 8.41299V4.73315H146.332V13.6389H148.041V10.5302L149.522 9.23647L152.598 13.6389Z" fill="#2363B0"/>
<path fill-rule="evenodd" clip-rule="evenodd" d="M88.4192 16.6387H89.9077L88.8178 19.3557H87.3293L88.4192 16.6387Z" fill="#2363B0"/>
<path d="M57.3613 22.6273L58.5527 25.0875H56.1868L57.3613 22.6273ZM60.4824 29.107H62.4289L58.0326 19.9246H56.7069L52.3442 29.107H54.2907L55.3477 26.8374H59.3918L60.4824 29.107ZM70.3693 29.107H71.4264V19.9246H69.6644V25.6246L64.7815 19.9246H63.7077V29.107H65.4696V23.407L70.3693 29.107ZM80.9441 29.107H82.0012V19.9246H80.2392V25.6246L75.3563 19.9246H74.2825V29.107H76.0444V23.407L80.9441 29.107ZM89.2536 24.8275L93.264 19.9246H90.9484L88.3811 23.2164L85.7803 19.9246H83.4982L87.4917 24.8275V29.107H89.2536V24.8275ZM93.6534 29.1416H95.432V19.9246H93.6534V29.1416ZM101.745 21.6744H105.168V19.9246H96.56V21.6744H99.9829V29.107H101.745V21.6744ZM106.044 29.107H113.528V27.3572H107.806V25.1048H111.078V23.3549H107.806V21.6744H113.192V19.9246H106.044V29.107ZM119.421 21.6744H122.844V19.9246H114.236V21.6744H117.659V29.107H119.421V21.6744ZM128.301 21.6744H131.724V19.9246H123.116V21.6744H126.539V29.107H128.301V21.6744ZM132.953 29.1416H134.731V19.9246H132.953V29.1416ZM144.064 29.107H146.212L142.202 23.3549L145.977 19.9246H143.645L139.366 23.7187V19.9246H137.604V29.107H139.366V25.9018L140.893 24.5677L144.064 29.107ZM60.4153 43.6649H62.5631L58.5527 37.9128L62.3281 34.4824H59.9958L55.7169 38.2766V34.4824H53.9552V43.6649H55.7169V40.4596L57.2439 39.1256L60.4153 43.6649ZM67.6845 36.059C69.2953 36.059 70.4867 37.3064 70.4867 39.0909C70.4867 40.8755 69.2953 42.123 67.6845 42.123C66.1071 42.123 64.8991 40.8928 64.8991 39.0909C64.8991 37.3064 66.1071 36.059 67.6845 36.059ZM67.6845 43.8902C70.3189 43.8902 72.2989 41.863 72.2989 39.0909C72.2989 36.3188 70.3189 34.2918 67.6845 34.2918C65.0501 34.2918 63.0868 36.3188 63.0868 39.0909C63.0868 41.863 65.0501 43.8902 67.6845 43.8902ZM81.8333 43.6649H83.5951V34.4824H82.2359L78.9808 39.1776L75.7423 34.4824H74.3831V43.6649H76.1282V37.9821L78.9808 42.2268L81.8333 37.9821V43.6649ZM88.1293 38.3806V36.2322H91.3342C91.653 36.2322 91.9718 36.2496 92.2236 36.4747C92.341 36.5961 92.5257 36.7866 92.5257 37.2544C92.5257 37.7916 92.2571 38.0515 92.19 38.1207C91.9216 38.346 91.502 38.3806 91.2503 38.3806H88.1293ZM86.3506 34.4824V43.6649H88.1293V40.1479H91.5524C92.039 40.1479 92.9283 40.0784 93.5994 39.3508C93.9519 38.9523 94.3378 38.3113 94.3378 37.2717C94.3378 36.2322 93.9687 35.6259 93.6163 35.2793C93.264 34.9155 92.5927 34.4824 91.4013 34.4824H86.3506ZM98.8216 37.1851L100.013 39.6453H97.6471L98.8216 37.1851ZM101.943 43.6649H103.889L99.4928 34.4824H98.1672L93.8045 43.6649H95.7508L96.808 41.3952H100.852L101.943 43.6649ZM111.83 43.6649H112.887V34.4824H111.125V40.1825L106.242 34.4824H105.168V43.6649H106.93V37.9648L111.83 43.6649ZM115.759 43.6995H117.538V34.4824H115.759V43.6995ZM123.817 37.1851L125.009 39.6453H122.643L123.817 37.1851ZM126.938 43.6649H128.885L124.489 34.4824H123.163L118.8 43.6649H120.747L121.804 41.3952H125.848L126.938 43.6649Z" fill="#2363B0"/>
</svg>
